<?xml version="1.0" encoding="utf-8"?>

<!DOCTYPE svg PUBLIC "-//W3C//DTD SVG 1.1//EN" "http://www.w3.org/Graphics/SVG/1.1/DTD/svg11.dtd">
<svg version="1.1" id="Layer_1" xmlns="http://www.w3.org/2000/svg" xmlns:xlink="http://www.w3.org/1999/xlink" x="0px" y="0px"
	 viewBox="0 0 1920 2226" enable-background="new 0 0 1920 2226" xml:space="preserve">
<g>
	<path fill="#603712" stroke="#603712" d="M974.37,245.48c24.71-7.95,50.71-11.58,76.63-11.99c38.71-0.86,77.29,4.87,114.9,13.75
		c12.85,2.72,25.32,7,38.13,9.87c25.98,2.38,51.7,7.02,77.16,12.63c40.15,9.07,79.73,21.09,117.52,37.47
		c37.41,16.48,73.53,37.43,102.63,66.49c12.38,12.59,23.7,26.48,31.74,42.28c9.2,17.91,17.07,36.46,24.5,55.18
		c8.57,22.51,16.01,45.5,21.18,69.04c3.89,18.66,6.68,37.87,4.43,56.93c-1.28,8.39-3.95,16.49-5.16,24.9
		c-4.79,27.78-3.28,56.41,2.73,83.88c8.6,40.33,26.19,77.85,41.35,115.97c7.56,20.05,15.18,40.52,16.71,62.09
		c0.96,12.07-1.38,24.03-1.92,36.06c-2.2,33.49,0.81,67.19,7.63,100.01c5.45,27,12.48,53.68,16.96,80.88
		c7.72,47.25,5.43,96.73-10.91,141.99c-5.61,16.06-13.22,31.33-21.63,46.07c-1.67,44.53-5.73,89.01-12.68,133.04
		c-5.56,34.91-12.9,69.59-23.37,103.37c-24.97-27.87-52.95-52.89-82.28-76.06c-9.77-7.42-19.23-15.33-29.58-21.91
		c-33.56,21.36-68.27,40.84-102.41,61.25c-28.91,17.61-58.32,35.46-82,59.97c-12.12,12.08-19.33,27.85-29.79,41.2
		c-8.6,11.19-18.43,21.58-29.94,29.81c-5.91,3.92-12.19,7.38-18.92,9.67c-15.96,5.62-34.05,3.63-48.78-4.52
		c-16.34-8.97-29.44-22.78-40.4-37.66c-6.44-8.47-11.55-17.85-17.72-26.5c-3.66-4.53-6.75-9.81-11.76-13
		c-1.47-6.97,0.96-13.96,2.67-20.66c3.69-12.54,8.18-24.84,13.24-36.89c10.51-38.07,24.18-75.32,40.71-111.2
		c10.16-21.75,21.62-42.96,35.32-62.7c10.05-14.31,21.3-27.94,34.78-39.15c8.77-7.32,18.62-13.5,29.4-17.39
		c4-1.52,8.37-2.04,12.08-4.31c-0.57-1.26-1.03-2.45-1.58-3.65c5.68-3.09,10.33-7.98,12.78-14c4.45-9.71,6.12-21.16,14.08-28.9
		c41.35-39.42,69.57-93.07,75.81-150.09c1.12-10.51,1.8-21.08,1.59-31.65c0.2-25.7,3.22-51.31,2.95-77.01
		c-0.39-14.8-2.14-29.8-7.59-43.66c-4.08-9.67-9.04-19.11-16-27.03c-0.59-0.74-1.36-1.02-2.31-0.83
		c-6.24-13.85-19.09-22.84-27.94-34.83c-7.27-9.39-11.9-20.7-13.6-32.44c-1.42-8.35-0.63-16.86-1.69-25.25
		c-2.02-10.18-4.14-20.5-8.93-29.84c-4.24-10.42-9.16-20.58-14.61-30.42c-10.28-16.97-21.35-33.45-32.11-50.11
		c-9.41-14.72-18.57-29.72-25.15-45.95c-4.65-11.63-7.89-24.03-7.65-36.63c0.09-9.01,0.02-18.14-2.27-26.92
		c-3.37-14.69-11.37-27.9-21.32-39.06c-12.5-14.5-27.91-26.43-38.71-42.38c-15.67-22.72-41.57-36.66-68.17-42.19
		c-12.83-2.81-26.03-2.38-39.07-3.02c-26.13-1.14-52.56-0.21-78.14,5.64c-25.92,5.84-51.06,16.94-71.14,34.6
		c-14.19,12.51-26.82,27.51-33.58,45.4c-9.58,24.47-14.69,50.38-19.94,76.05c-4.31,20.63-8.2,41.35-13.24,61.81
		c-5.4,21.92-10.89,43.82-15.7,65.89c-6.46,29.34-11.94,59.07-12.85,89.17c-0.8,13.98-0.31,27.99-0.44,41.98
		c-0.34,12.37,1.19,24.68,1.88,37.02c1.6,18.57,4.21,37.06,7.95,55.32c-1.19,3.5-0.62,7.18-0.32,10.78
		c0.77,15.13,2.64,30.18,3.95,45.27c3.44,29.95,7.13,59.91,12.83,89.53c2.93,14.77,6.04,29.56,10.93,43.82
		c7.49,18.24,18.6,34.75,30.47,50.41c-35.13,26.62-66.66,57.86-94.35,92.12c-13.05-17.01-24.69-35.14-34.24-54.34
		c-18.55-36.77-28.8-77.75-29.2-118.96c-0.11-11.4-0.58-22.82-2.07-34.14c-5.47-43.32-19.17-84.96-30.44-126.99
		c-7.63-27.49-14.8-55.31-17.29-83.81c-1.5-17.75-1.05-35.91,4.07-53.09c7.8-26.42,24.2-49.18,41.89-69.89
		c18.22-21.88,39.11-42.13,52.17-67.76c7.78-15.43,10.4-32.72,14.01-49.44c7.69-40.06,13.57-80.44,21.42-120.47
		c4.11-19.19,7.62-38.65,14.71-57.03c2.36-6.35,6.22-12,8.76-18.27c4.52-10.95,8.32-22.18,12.63-33.21
		c13.3-34.7,30.62-68.54,56.13-95.92C910.47,275.15,941.05,255.95,974.37,245.48z"/>
	<path fill="#FAB03B" stroke="#FAB03B" d="M967.89,445.12c25.58-5.85,52.01-6.78,78.14-5.64c13.04,0.64,26.24,0.21,39.07,3.02
		c26.6,5.53,52.5,19.47,68.17,42.19c10.8,15.95,26.21,27.88,38.71,42.38c9.95,11.16,17.95,24.37,21.32,39.06
		c2.29,8.78,2.36,17.91,2.27,26.92c-0.24,12.6,3,25,7.65,36.63c6.58,16.23,15.74,31.23,25.15,45.95
		c10.76,16.66,21.83,33.14,32.11,50.11c-3.8-0.36-7.16-2.36-10.8-3.29c-23.21-6.85-47.67-7.36-71.68-6.84
		c-24.87,0.99-49.74,3.47-74.19,8.17c-0.63,7.64-1.64,15.25-2.41,22.88c26.85-2.11,53.69-4.42,80.54-6.63
		c10.49-1.01,21.04-1.5,31.5-2.82c9.92-2.77,20.58-3.12,30.5-0.15c11.96,3.26,22.38,10.53,31.15,19.1
		c4.79,9.34,6.91,19.66,8.93,29.84c1.06,8.39,0.27,16.9,1.69,25.25c1.7,11.74,6.33,23.05,13.6,32.44
		c8.85,11.99,21.7,20.98,27.94,34.83c4.59,10.13,3.76,21.69,1.59,32.31c-5.31,24.49-8.89,49.33-11.87,74.2
		c-2.08,20.44-6.2,40.69-12.8,60.16c-5.02,16.26-11.38,32.19-20.19,46.79c-6.97,11.83-14.95,23.02-22.69,34.36
		c-4.7,6.53-8.66,13.8-15.03,18.93c-3.48,3.2-7.76,5.4-11.09,8.77c0.16,32.93,0.07,65.88,0.05,98.82
		c-40.18,12.85-80.13,26.41-119.85,40.6c-42.2,15.13-84.16,30.98-125.46,48.43c-32.11,13.71-64.06,28.09-94.15,45.87
		c-10.01,6.1-19.9,12.54-28.64,20.4c-4.7,4.32-9.29,9.12-11.8,15.08c-4.29,15.22-10.1,29.97-15.06,44.98
		c-4.62,12.93-8.71,26.07-13.66,38.87c1.15-19.76,3.49-39.49,7.92-58.81c2.63-2.44,4.39-5.57,6.17-8.62
		c6.63-11.03,13.31-22.02,19.85-33.09c4.04-8.84,8.43-17.51,12.67-26.25c2.62-6.47,6.35-12.39,9.42-18.64
		c7.91-15.39,16.21-30.68,26.33-44.75c1.44-2.73,0.87-6.01,1.15-8.97c-0.11-5.59,0.87-11.32-0.72-16.76
		c1.56-2.8,0.64-6.12,0.71-9.14c-0.97-36.07-4.84-72.03-5.08-108.12c-3.74-3.84-7.67-7.52-10.95-11.78
		c-6.17-7.49-11.17-15.84-15.86-24.3c-5.38-6.86-9.71-14.44-14.14-21.92c-10.22-17.59-20.03-35.42-29.73-53.3
		c-10.06-18.69-20.64-37.22-28.02-57.19c-6.68-17.21-11.65-35.05-15.49-53.09c-3.74-18.26-6.35-36.75-7.95-55.32
		c-0.69-12.34-2.22-24.65-1.88-37.02c0.13-13.99-0.36-28,0.44-41.98c0.91-30.1,6.39-59.83,12.85-89.17
		c4.81-22.07,10.3-43.97,15.7-65.89c5.04-20.46,8.93-41.18,13.24-61.81c5.25-25.67,10.36-51.58,19.94-76.05
		c6.76-17.89,19.39-32.89,33.58-45.4C916.83,462.06,941.97,450.96,967.89,445.12 M875.87,650.31c-10.16,1.68-20.33,6.25-26.69,14.61
		c1.4,4,5.19,6.38,8.88,8.02c10.35-4.62,21.45-8.3,32.94-8.01c12.13-0.23,23.98,4.15,33.69,11.29
		c16.27,7.89,32.75,15.36,49.11,23.09c17.41,8.03,34.66,16.47,52.18,24.23c1.88-7.43,3.68-14.88,5.62-22.3
		c-14.71-8.96-30.08-16.82-45.66-24.15c-19.94-9.27-40.47-17.48-61.81-22.93C908.42,650.36,891.99,647.63,875.87,650.31
		 M898.07,696.83c-11.61,2.71-23.14,6.89-32.89,13.85c6.56,0.98,12.65,3.73,18.72,6.29c0.2,4.23,4.25,6.65,7.39,8.79
		c10.33,6.12,21.84,9.85,33.2,13.59c10.07,3.06,20.19,6.09,30.48,8.33c8.6,0.08,17.52-1.02,25.88,1.59
		c5.49,3.38,11.57,5.63,17.37,8.41c4.25,1.81,8.32,4.03,12.69,5.55c1.07-1.62,2.65-3.11,2.8-5.15c0.4-2.01-1.33-3.43-2.53-4.73
		c0.09-3.17-1.49-6-2.76-8.78c-4.55-9.02-10.5-17.26-16.7-25.2c-7.02-4.88-14.26-9.49-21.96-13.22
		C947.76,695.28,922.12,691.32,898.07,696.83 M1177.39,757.77c-6.76,3.88-13.23,8.29-19.38,13.09c-4.13,3.46-8.61,6.91-11.15,11.79
		c-4.44,0.97-4.54,5.99-2.79,9.34c11.33-0.76,22.72-1.17,33.98-2.49c8.25,1.02,15.81,4.76,23.5,7.67
		c11.44,1.56,22.97,2.51,34.51,3.13c11.02,0.46,22.16,0.84,33.08-1.1c3.72-0.87,8.39-1.81,10.1-5.7c6.55,0.14,13.19-0.52,19.66,0.89
		c-12.42-17.48-31.07-30.2-51.38-36.76C1224.83,750.37,1200.16,751.49,1177.39,757.77 M911.52,967.86
		c9.44,6.21,18.14,14.1,23.13,24.43c8.44,16.17,19.09,31.22,31.47,44.61c11.76,12.4,25.63,23.68,42.26,28.6
		c10.21,3.15,21.02,2.26,31.54,1.94c36.38-2.16,72.66-10.33,105.66-25.99c5.19-2.67,10.75-4.86,15.25-8.66
		c5.06-4.1,11.7-5.92,18.15-5.83c3.04-0.04,6.06,0.79,9.13,0.44c0.67-2.69-0.18-5.76-3.18-6.38c-9.17-2.57-18.7,0.03-27.94,0.73
		c-12.19-0.21-24.55-0.95-36.31-4.37c-4.09-1.07-7.54-3.75-11.68-4.6c-14.3-3.47-28.57-7.03-43-9.91c-7.23-1.71-14.7-1.9-21.94-3.54
		c-21.38-4.13-42.99-7.45-63.98-13.27c-8.07-0.76-16.24-1.13-24.08-3.38c-10.81-2.94-20.92-8.15-29.97-14.7
		C921.99,964.49,915.98,966.02,911.52,967.86 M1234.59,1165.58c-20.76,10.97-42.34,20.28-64.18,28.84
		c-20.84,8.04-41.85,15.72-63.35,21.8c-10.51,2.89-21.14,6-32.13,6.08c-14.33,0.52-28.64,2.13-42.99,1.6
		c-16.61-0.07-33.36-3.82-47.96-11.85c-5.57-2.58-10.16-6.79-15.7-9.41c-8.99-4.39-17.58-9.54-25.91-15.06
		c-2.51-1.59-4.65-3.83-7.53-4.74c2.6,4.07,6.62,6.92,9.9,10.42c7.64,6.77,15.4,13.45,23.82,19.25
		c30.58,22.19,67.42,36.83,105.48,37.51c23.31,0.57,46.56-4.17,68.26-12.54c35.18-13.91,66.19-36.78,93.1-63.08
		c3.45-2.87,6.68-6,9.55-9.45c2.93-3.51,6.67-6.31,9.14-10.19C1247.37,1157.94,1241.22,1162.21,1234.59,1165.58z"/>
	<path fill="#8C6239" stroke="#8C6239" d="M875.87,650.31c16.12-2.68,32.55,0.05,48.26,3.85c21.34,5.45,41.87,13.66,61.81,22.93
		c15.58,7.33,30.95,15.19,45.66,24.15c-1.94,7.42-3.74,14.87-5.62,22.3c-17.52-7.76-34.77-16.2-52.18-24.23
		c-16.36-7.73-32.84-15.2-49.11-23.09c-9.71-7.14-21.56-11.52-33.69-11.29c-11.49-0.29-22.59,3.39-32.94,8.01
		c-3.69-1.64-7.48-4.02-8.88-8.02C855.54,656.56,865.71,651.99,875.87,650.31z"/>
	<path fill="#754C24" stroke="#754C24" d="M898.07,696.83c24.05-5.51,49.69-1.55,71.69,9.32c7.7,3.73,14.94,8.34,21.96,13.22
		c-1.7,1.45-3.4,2.88-5.11,4.31c-6.93-5.13-14.59-9.49-22.96-11.73c-7.01-2.21-14.37-2.76-21.6-3.85c-2.24-0.2-4.64-0.97-6.74,0.14
		l0.92-0.91c-17.6-1.18-35.32,2.33-51.93,8.03c-0.1,0.4-0.3,1.21-0.4,1.61c-6.07-2.56-12.16-5.31-18.72-6.29
		C874.93,703.72,886.46,699.54,898.07,696.83z"/>
	<path fill="#FFFFFF" stroke="#FFFFFF" d="M884.3,715.36c16.61-5.7,34.33-9.21,51.93-8.03l-0.92,0.91
		c-3.02,2.78-5.59,6.19-6.57,10.24c-2.12,7.26,0.55,15.59,6.45,20.32c6.29,5.36,16.03,5.91,22.96,1.43
		c9.55-5.64,11.81-19.4,5.5-28.28c8.37,2.24,16.03,6.6,22.96,11.73c7.87,6.03,14.51,13.6,19.7,22.03c1.61,2.54,2.75,5.43,4.87,7.64
		c1.2,1.3,2.93,2.72,2.53,4.73c-0.15,2.04-1.73,3.53-2.8,5.15c-4.37-1.52-8.44-3.74-12.69-5.55c-5.8-2.78-11.88-5.03-17.37-8.41
		c-8.36-2.61-17.28-1.51-25.88-1.59c-10.29-2.24-20.41-5.27-30.48-8.33c-11.36-3.74-22.87-7.47-33.2-13.59
		c-3.14-2.14-7.19-4.56-7.39-8.79C884,716.57,884.2,715.76,884.3,715.36z"/>
	<path stroke="#000000" d="M935.31,708.24c2.1-1.11,4.5-0.34,6.74-0.14c7.23,1.09,14.59,1.64,21.6,3.85
		c6.31,8.88,4.05,22.64-5.5,28.28c-6.93,4.48-16.67,3.93-22.96-1.43c-5.9-4.73-8.57-13.06-6.45-20.32
		C929.72,714.43,932.29,711.02,935.31,708.24z"/>
	<path fill="#8C6239" stroke="#8C6239" d="M1123.81,723.78c24.45-4.7,49.32-7.18,74.19-8.17c24.01-0.52,48.47-0.01,71.68,6.84
		c3.64,0.93,7,2.93,10.8,3.29c5.45,9.84,10.37,20,14.61,30.42c-8.77-8.57-19.19-15.84-31.15-19.1c-9.92-2.97-20.58-2.62-30.5,0.15
		c-10.46,1.32-21.01,1.81-31.5,2.82c-26.85,2.21-53.69,4.52-80.54,6.63C1122.17,739.03,1123.18,731.42,1123.81,723.78z"/>
	<path fill="#F15A24" stroke="#F15A24" d="M991.72,719.37c6.2,7.94,12.15,16.18,16.7,25.2c1.27,2.78,2.85,5.61,2.76,8.78
		c-2.12-2.21-3.26-5.1-4.87-7.64c-5.19-8.43-11.83-16-19.7-22.03C988.32,722.25,990.02,720.82,991.72,719.37z"/>
	<path fill="#754C24" stroke="#754C24" d="M1177.39,757.77c22.77-6.28,47.44-7.4,70.13-0.14c20.31,6.56,38.96,19.28,51.38,36.76
		c-6.47-1.41-13.11-0.75-19.66-0.89c-0.01-0.37-0.02-1.1-0.03-1.47c-7.76-6.88-16.55-12.54-25.62-17.53
		c-6.45-3.32-12.99-6.78-20.14-8.33c-8.87-2.13-17.71-4.58-26.79-5.61c-8.74-0.44-17.55,0.44-25.94,2.96
		C1179.6,761.59,1178.49,759.68,1177.39,757.77z"/>
	<path fill="#F15A24" stroke="#F15A24" d="M1158.01,770.86c6.15-4.8,12.62-9.21,19.38-13.09c1.1,1.91,2.21,3.82,3.33,5.75
		c-9.36,2.78-18.12,7.42-25.9,13.28c-2.67,1.93-4.91,4.49-7.96,5.85C1149.4,777.77,1153.88,774.32,1158.01,770.86z"/>
	<path fill="#FFFFFF" stroke="#FFFFFF" d="M1180.72,763.52c8.39-2.52,17.2-3.4,25.94-2.96c-3.41,2.37-6.37,5.54-7.81,9.5
		c-2.92,7.21-1.08,16.09,4.67,21.38c6.43,6.47,17.5,7.18,24.86,1.9c8.74-5.79,10.77-18.56,5.07-27.17
		c7.15,1.55,13.69,5.01,20.14,8.33c9.07,4.99,17.86,10.65,25.62,17.53c0.01,0.37,0.02,1.1,0.03,1.47c-1.71,3.89-6.38,4.83-10.1,5.7
		c-10.92,1.94-22.06,1.56-33.08,1.1c-11.54-0.62-23.07-1.57-34.51-3.13c-7.69-2.91-15.25-6.65-23.5-7.67
		c-11.26,1.32-22.65,1.73-33.98,2.49c-1.75-3.35-1.65-8.37,2.79-9.34c3.05-1.36,5.29-3.92,7.96-5.85
		C1162.6,770.94,1171.36,766.3,1180.72,763.52z"/>
	<path stroke="#000000" d="M1206.66,760.56c9.08,1.03,17.92,3.48,26.79,5.61c5.7,8.61,3.67,21.38-5.07,27.17
		c-7.36,5.28-18.43,4.57-24.86-1.9c-5.75-5.29-7.59-14.17-4.67-21.38C1200.29,766.1,1203.25,762.93,1206.66,760.56z"/>
	<path fill="#41200A" stroke="#41200A" d="M1347.25,878.52c0.95-0.19,1.72,0.09,2.31,0.83c6.96,7.92,11.92,17.36,16,27.03
		c5.45,13.86,7.2,28.86,7.59,43.66c0.27,25.7-2.75,51.31-2.95,77.01c0.21,10.57-0.47,21.14-1.59,31.65
		c-6.24,57.02-34.46,110.67-75.81,150.09c-7.96,7.74-9.63,19.19-14.08,28.9c-2.45,6.02-7.1,10.91-12.78,14
		c-0.23-0.47-0.69-1.41-0.92-1.88c-3.3,0.9-6.54,2.02-9.8,3.05c0.02-32.94,0.11-65.89-0.05-98.82c3.33-3.37,7.61-5.57,11.09-8.77
		c6.37-5.13,10.33-12.4,15.03-18.93c7.74-11.34,15.72-22.53,22.69-34.36c8.81-14.6,15.17-30.53,20.19-46.79
		c6.6-19.47,10.72-39.72,12.8-60.16c2.98-24.87,6.56-49.71,11.87-74.2C1351.01,900.21,1351.84,888.65,1347.25,878.52z"/>
	<path fill="#41200A" stroke="#41200A" d="M810.51,963.14c-0.3-3.6-0.87-7.28,0.32-10.78c3.84,18.04,8.81,35.88,15.49,53.09
		c7.38,19.97,17.96,38.5,28.02,57.19c9.7,17.88,19.51,35.71,29.73,53.3c4.43,7.48,8.76,15.06,14.14,21.92
		c4.69,8.46,9.69,16.81,15.86,24.3c-15.82,8.91-30.89,19.1-45.38,30.01c-11.87-15.66-22.98-32.17-30.47-50.41
		c-4.89-14.26-8-29.05-10.93-43.82c-5.7-29.62-9.39-59.58-12.83-89.53C813.15,993.32,811.28,978.27,810.51,963.14z"/>
	<path fill="#F15A24" stroke="#F15A24" d="M911.52,967.86c4.46-1.84,10.47-3.37,14.51,0.12c9.05,6.55,19.16,11.76,29.97,14.7
		c7.84,2.25,16.01,2.62,24.08,3.38c20.99,5.82,42.6,9.14,63.98,13.27c7.24,1.64,14.71,1.83,21.94,3.54c14.43,2.88,28.7,6.44,43,9.91
		c4.14,0.85,7.59,3.53,11.68,4.6c11.76,3.42,24.12,4.16,36.31,4.37c9.24-0.7,18.77-3.3,27.94-0.73c3,0.62,3.85,3.69,3.18,6.38
		c-3.07,0.35-6.09-0.48-9.13-0.44c-6.45-0.09-13.09,1.73-18.15,5.83c-4.5,3.8-10.06,5.99-15.25,8.66
		c-33,15.66-69.28,23.83-105.66,25.99c-10.52,0.32-21.33,1.21-31.54-1.94c-16.63-4.92-30.5-16.2-42.26-28.6
		c-12.38-13.39-23.03-28.44-31.47-44.61C929.66,981.96,920.96,974.07,911.52,967.86 M945.03,989.86
		c10.81,19.92,27.03,37.25,47.36,47.6c19.19,9.97,41.11,13.71,62.59,13.3c24.8-0.51,49.32-5.95,72.61-14.29
		c6.24-2.49,12.85-4.38,18.55-7.99C1078.1,1022,1010.51,1009.55,945.03,989.86z"/>
	<path fill="#FFFFFF" stroke="#FFFFFF" d="M945.03,989.86c65.48,19.69,133.07,32.14,201.11,38.62c-5.7,3.61-12.31,5.5-18.55,7.99
		c-23.29,8.34-47.81,13.78-72.61,14.29c-21.48,0.41-43.4-3.33-62.59-13.3C972.06,1027.11,955.84,1009.78,945.03,989.86z"/>
	<path fill="#F7931E" stroke="#F7931E" d="M1234.59,1165.58c6.63-3.37,12.78-7.64,19.5-10.82c-2.47,3.88-6.21,6.68-9.14,10.19
		c-2.87,3.45-6.1,6.58-9.55,9.45c-26.91,26.3-57.92,49.17-93.1,63.08c-21.7,8.37-44.95,13.11-68.26,12.54
		c-38.06-0.68-74.9-15.32-105.48-37.51c-8.42-5.8-16.18-12.48-23.82-19.25c-3.28-3.5-7.3-6.35-9.9-10.42
		c2.88,0.91,5.02,3.15,7.53,4.74c8.33,5.52,16.92,10.67,25.91,15.06c5.54,2.62,10.13,6.83,15.7,9.41
		c14.6,8.03,31.35,11.78,47.96,11.85c14.35,0.53,28.66-1.08,42.99-1.6c10.99-0.08,21.62-3.19,32.13-6.08
		c21.5-6.08,42.51-13.76,63.35-21.8C1192.25,1185.86,1213.83,1176.55,1234.59,1165.58z"/>
	<path fill="#F2F2F2" stroke="#F2F2F2" d="M868.69,1192.17c14.49-10.91,29.56-21.1,45.38-30.01c3.28,4.26,7.21,7.94,10.95,11.78
		c0.24,36.09,4.11,72.05,5.08,108.12c-0.07,3.02,0.85,6.34-0.71,9.14c-35.65,46.26-62.14,99.96-74.87,157.08
		c-4.43,19.32-6.77,39.05-7.92,58.81c4.95-12.8,9.04-25.94,13.66-38.87c4.96-15.01,10.77-29.76,15.06-44.98
		c2.51-5.96,7.1-10.76,11.8-15.08c8.74-7.86,18.63-14.3,28.64-20.4c30.09-17.78,62.04-32.16,94.15-45.87
		c41.3-17.45,83.26-33.3,125.46-48.43c39.72-14.19,79.67-27.75,119.85-40.6c3.26-1.03,6.5-2.15,9.8-3.05
		c0.23,0.47,0.69,1.41,0.92,1.88c0.55,1.2,1.01,2.39,1.58,3.65c-3.71,2.27-8.08,2.79-12.08,4.31c-10.78,3.89-20.63,10.07-29.4,17.39
		c-13.48,11.21-24.73,24.84-34.78,39.15c-13.7,19.74-25.16,40.95-35.32,62.7c-16.53,35.88-30.2,73.13-40.71,111.2
		c-5.06,12.05-9.55,24.35-13.24,36.89c-1.71,6.7-4.14,13.69-2.67,20.66c-30.13,9.45-60.66,17.65-91.42,24.79
		c-1.62,0.26-3.25,0.91-4.89,0.57c-16.75-3.66-33.35-8.03-50.04-11.96c-33.02-8.59-66.04-17.16-98.92-26.3
		c-2.4-0.7-4.83-1.47-7.35-1.31c-6.8,0.48-13.43-1.6-19.41-4.66c-12.41-7.09-20.81-19.34-27.2-31.8
		c-2.61-5.21-4.99-10.55-6.86-16.07c-0.73-2.11-1.41-4.41-3.33-5.74c-12.6-10.33-24.71-21.33-35.38-33.66
		c-7.73-9.02-14.83-18.84-19.02-30.04c-2.86-7.76-4-16.73-0.51-24.47c1.62-4.09,4.91-7.1,8.05-10.03
		c-6.16-0.5-10.89,4.15-14.83,8.24c-11.08,12.38-19.45,26.86-27.72,41.19c-17.4,30.77-32.23,62.88-46.98,94.97
		c0.13-5.27,2.88-9.94,3.93-15.02c1.91-8.76,5.75-16.93,7.89-25.62c3.58-7.56,5.92-15.66,9.22-23.36
		c23-58.02,53.38-113.27,91.58-162.7c2.7-3.49,5.42-6.96,8.21-10.37C802.03,1250.03,833.56,1218.79,868.69,1192.17z"/>
	<path fill="#F7931E" stroke="#F7931E" d="M854.52,1448.28c12.73-57.12,39.22-110.82,74.87-157.08c1.59,5.44,0.61,11.17,0.72,16.76
		c-0.28,2.96,0.29,6.24-1.15,8.97c-10.12,14.07-18.42,29.36-26.33,44.75c-3.07,6.25-6.8,12.17-9.42,18.64
		c-4.24,8.74-8.63,17.41-12.67,26.25c-6.54,11.07-13.22,22.06-19.85,33.09C858.91,1442.71,857.15,1445.84,854.52,1448.28z"/>
	<path fill="#393848" stroke="#393848" d="M634.82,1310.76c41.29-17.25,87.14-20.73,131.31-16.1
		c-38.2,49.43-68.58,104.68-91.58,162.7c-3.3,7.7-5.64,15.8-9.22,23.36c-29.79,23.63-58.82,48.2-87.8,72.83
		c-29.77,25.47-59.23,51.32-88.12,77.8c-30.04,27.59-59.62,55.73-87.58,85.44c-13.27,14.16-26.18,28.68-38.07,44.02
		c-7.77,10.09-15.17,20.56-20.9,31.97c-3.57,7.44-6.8,15.65-5.4,24.07c-10.81,16.91-19.06,35.29-26.68,53.82
		c-21.95,55.07-35.38,113.22-43.85,171.79c-1.07,7.53-2.2,15.06-2.95,22.64c-6.66,53.35-8.82,107.17-8.48,160.9H134.85
		c13.09-87.93,27.55-175.66,44.15-263c16.83-87.74,35.14-175.31,59.65-261.27c11.35-38.72,23.55-77.42,41.24-113.79
		c7.4-14.19,15.24-28.87,27.59-39.38c34-2.53,68.08-5.48,101.74-11.22c18.43-3.28,36.93-6.95,54.48-13.61
		c7.19-2.97,14.63-6.21,20.01-12.02c3.87-4.03,4.22-9.91,5.93-14.96c12.13-43.92,30.98-86.66,60.08-122.06
		C572.38,1346.94,601.61,1324.41,634.82,1310.76z"/>
	<path fill="#B3B3B3" stroke="#B3B3B3" d="M728.21,1385.2c3.94-4.09,8.67-8.74,14.83-8.24c-3.14,2.93-6.43,5.94-8.05,10.03
		c-3.49,7.74-2.35,16.71,0.51,24.47c4.19,11.2,11.29,21.02,19.02,30.04c10.67,12.33,22.78,23.33,35.38,33.66
		c1.92,1.33,2.6,3.63,3.33,5.74c1.87,5.52,4.25,10.86,6.86,16.07c6.39,12.46,14.79,24.71,27.2,31.8
		c-5.82-0.75-10.68-4.47-15.08-8.07c-12.19-10.81-19.15-26-24.67-41c-8.26-0.66-14.6-6.59-20.43-11.86
		c-9.98-9.65-18.77-20.5-26.84-31.77c-2.44,1.57-4.28,3.84-6.23,5.96c-22.27,23.07-44.53,46.14-66.76,69.24
		c-5.1,4.87-9.46,10.58-15.07,14.89c0.4-1.66,0.87-3.2,1.3-4.8c14.75-32.09,29.58-64.2,46.98-94.97
		C708.76,1412.06,717.13,1397.58,728.21,1385.2z"/>
	<path fill="#393848" stroke="#393848" d="M1378.63,1488.67c34.14-20.41,68.85-39.89,102.41-61.25
		c10.35,6.58,19.81,14.49,29.58,21.91c29.33,23.17,57.31,48.19,82.28,76.06c14.08,15.75,27.23,32.37,38.87,50.02
		c16.42,25.07,30.02,52.37,36.99,81.65c3.77,16.29,5.85,33.36,2.8,49.95c0.42,7.08,2.32,13.98,3.95,20.88
		c6.67,26.21,14.81,52.02,22.91,77.82c8.49,26.61,17.17,53.16,26.15,79.61c1.11,3.07,2.92,5.82,4.33,8.77
		c4.94,10.37,8.23,21.46,10.44,32.72c4.91,25.76,4.83,52.18,2.79,78.24c-1.95,23.28-5.55,46.42-10.77,69.2
		c-1.88,12.05-1.22,24.31-1.01,36.46c1.38,38.51,4.74,76.92,8.27,115.29h-484.39c-26.64-121.36-36.81-245.95-35.25-370.06
		c0.93-72.51,5.82-144.99,15.37-216.9c0.8-6.47,2.16-12.88,2.55-19.39c11.51-8.23,21.34-18.62,29.94-29.81
		c10.46-13.35,17.67-29.12,29.79-41.2C1320.31,1524.13,1349.72,1506.28,1378.63,1488.67z"/>
	<path fill="#E6E6E6" stroke="#E6E6E6" d="M734.04,1442.03c1.95-2.12,3.79-4.39,6.23-5.96c8.07,11.27,16.86,22.12,26.84,31.77
		c5.83,5.27,12.17,11.2,20.43,11.86c5.52,15,12.48,30.19,24.67,41c4.4,3.6,9.26,7.32,15.08,8.07c5.98,3.06,12.61,5.14,19.41,4.66
		c13.68,8.26,27.89,15.66,42.31,22.56c12.18,5.66,24.55,11.18,37.63,14.43c4.25,1.22,8.74,0.98,13.04,1.99
		c-9.88,8.62-19.65,17.41-28.89,26.72c-20.64,0.9-40.95,5.43-60.7,11.27c-40.62,12.28-78.94,31.34-114.72,54
		c-60.83,38.77-114.37,88.07-161.98,142.04c-26.42,29.9-50.88,61.47-74.11,93.89c-27.63,30.4-53.18,62.71-76.35,96.64
		c-24.42,36.13-46.56,74.17-61.76,115.17l-0.16-0.09c-34.39-18.67-66.45-41.81-94.08-69.59c8.47-58.57,21.9-116.72,43.85-171.79
		c7.62-18.53,15.87-36.91,26.68-53.82c-1.4-8.42,1.83-16.63,5.4-24.07c5.73-11.41,13.13-21.88,20.9-31.97
		c11.89-15.34,24.8-29.86,38.07-44.02c27.96-29.71,57.54-57.85,87.58-85.44c28.89-26.48,58.35-52.33,88.12-77.8
		c28.98-24.63,58.01-49.2,87.8-72.83c-2.14,8.69-5.98,16.86-7.89,25.62c-1.05,5.08-3.8,9.75-3.93,15.02c-0.43,1.6-0.9,3.14-1.3,4.8
		c5.61-4.31,9.97-10.02,15.07-14.89C689.51,1488.17,711.77,1465.1,734.04,1442.03z"/>
	<path fill="#B3B3B3" stroke="#B3B3B3" d="M846.7,1533.43c2.52-0.16,4.95,0.61,7.35,1.31c32.88,9.14,65.9,17.71,98.92,26.3
		c-2.64,2.66-5.56,5.02-8.37,7.51c-1.58,1.35-3.27,2.59-4.92,3.86c-4.3-1.01-8.79-0.77-13.04-1.99
		c-13.08-3.25-25.45-8.77-37.63-14.43C874.59,1549.09,860.38,1541.69,846.7,1533.43z"/>
	<path fill="#292732" stroke="#292732" d="M1007.9,1572.43c30.76-7.14,61.29-15.34,91.42-24.79c5.01,3.19,8.1,8.47,11.76,13
		c-36.72,9.94-73.37,20.19-110.05,30.33c-1.64,0.39-3.41,0.85-5,0.08c-17.19-7.38-34.08-15.48-51.43-22.5
		c2.81-2.49,5.73-4.85,8.37-7.51c16.69,3.93,33.29,8.3,50.04,11.96C1004.65,1573.34,1006.28,1572.69,1007.9,1572.43z"/>
	<path fill="#393848" stroke="#393848" d="M1001.03,1590.97c36.68-10.14,73.33-20.39,110.05-30.33c6.17,8.65,11.28,18.03,17.72,26.5
		c10.96,14.88,24.06,28.69,40.4,37.66c14.73,8.15,32.82,10.14,48.78,4.52c-2.76,51.75-7.19,103.39-11.58,155.03
		c-12.79,144.66-27.11,289.19-41.68,433.69c-0.27,2.64-0.59,5.29-0.9,7.96H348.1c-4.07-16.98-4.37-34.7-2.42-51.99l0.03-0.28
		c6.77,4.76,14.27,8.29,21.66,11.96c18.26,9.42,37.83,16.02,57.63,21.34c29.95,7.86,60.72,12.25,91.57,14.42
		c7.46,0.86,15,0.37,22.46,1.43c20.33,0.39,40.67,0.09,61,0.13c5.65-0.21,11.24-1.31,16.92-0.97
		c69.99-3.74,139.52-14.39,208.05-29.03c18.78-4.23,37.6-8.37,56.13-13.66c-5.42-0.68-10.73,1.06-16.09,1.56
		c-35.84,4.99-71.9,8.24-108.01,10.08c-6.36-0.13-12.71,0.1-19.03,0.82c-16.32,0.22-32.64,0.21-48.96,0.09
		c-8.38,0.28-16.67-1.41-25.05-0.96c-69.6-3.35-139.16-14.5-205.41-36.54c-33.65-11.13-66.43-25-97.41-42.26
		c15.2-41,37.34-79.04,61.76-115.17c23.17-33.93,48.72-66.24,76.35-96.64c23.23-32.42,47.69-63.99,74.11-93.89
		c47.61-53.97,101.15-103.27,161.98-142.04c35.78-22.66,74.1-41.72,114.72-54c19.75-5.84,40.06-10.37,60.7-11.27
		c9.24-9.31,19.01-18.1,28.89-26.72c1.65-1.27,3.34-2.51,4.92-3.86c17.35,7.02,34.24,15.12,51.43,22.5
		C997.62,1591.82,999.39,1591.36,1001.03,1590.97z"/>
	<path fill="#292732" stroke="#292732" d="M1217.98,1629.32c6.73-2.29,13.01-5.75,18.92-9.67c-0.39,6.51-1.75,12.92-2.55,19.39
		c-9.55,71.91-14.44,144.39-15.37,216.9c-1.56,124.11,8.61,248.7,35.25,370.06h-90.41c0.31-2.67,0.63-5.32,0.9-7.96
		c14.57-144.5,28.89-289.03,41.68-433.69C1210.79,1732.71,1215.22,1681.07,1217.98,1629.32z"/>
	<path fill="#78777C" stroke="#78777C" d="M266.93,2042.46c27.63,27.78,59.69,50.92,94.08,69.59c-7.07,19.99-13,40.53-15.3,61.68
		l-0.03,0.28c-28.81-17.76-53.13-43.17-68.13-73.62c-5.78-11.24-9.88-23.23-13.57-35.29
		C264.73,2057.52,265.86,2049.99,266.93,2042.46z"/>
	<path fill="#E6E6E6" stroke="#E6E6E6" d="M255.5,2226c-0.34-53.73,1.82-107.55,8.48-160.9c3.69,12.06,7.79,24.05,13.57,35.29
		c15,30.45,39.32,55.86,68.13,73.62c-1.95,17.29-1.65,35.01,2.42,51.99H255.5z"/>
	<path fill="#312F3D" stroke="#312F3D" d="M361.01,2112.05l0.16,0.09c30.98,17.26,63.76,31.13,97.41,42.26
		c66.25,22.04,135.81,33.19,205.41,36.54c8.38-0.45,16.67,1.24,25.05,0.96c16.32,0.12,32.64,0.13,48.96-0.09
		c6.32-0.72,12.67-0.95,19.03-0.82c36.11-1.84,72.17-5.09,108.01-10.08c5.36-0.5,10.67-2.24,16.09-1.56
		c-18.53,5.29-37.35,9.43-56.13,13.66c-68.53,14.64-138.06,25.29-208.05,29.03c-5.68-0.34-11.27,0.76-16.92,0.97
		c-20.33-0.04-40.67,0.26-61-0.13c-7.46-1.06-15-0.57-22.46-1.43c-30.85-2.17-61.62-6.56-91.57-14.42
		c-19.8-5.32-39.37-11.92-57.63-21.34c-7.39-3.67-14.89-7.2-21.66-11.96C348.01,2152.58,353.94,2132.04,361.01,2112.05z"/>
</g>
</svg>
